# xmcd CD Database Entry
#
# Track frame offsets:
# 150
# 27820
# 56493
# 88256
# 124654
# 151746
# 177067
# 206293
# 239206
# 260385
# 276596
# 301353
# 329493
#
# Disc length: 4739 seconds
#
# Revision: 3
# Processed by: cddbd v1.4PL0 Copyright (c) Steve Scherf et al.
# Submitted via: CDex 1.50Beta7
#
DISCID=b512810d
DTITLE=Various Artist - Café del Mar
DYEAR=1900
DGENRE=Easy Listening
TTITLE0=Silent Poets - Moment Scale(Dubmaster X Remix)
TTITLE1=Psychedelic Research Lab - Tarenah (Chill Mix)
TTITLE2=D-Note - D-Votion
TTITLE3=A Man Called Adam with Eddie Parker - Easter Song
TTITLE4=Paco de Lucía - Entre dos Aguas
TTITLE5=Marc Antoine - Unity
TTITLE6=José Padilla - Sabor de Verano (The Wau Out West Mix)
TTITLE7=Salt Tank - Sargasso Sea
TTITLE8=Mark's Et Henrys - (The making of ...) Jill
TTITLE9=Ramp - Everyboy Loves The Sunshine
TTITLE10=deadbeats - Feel Good
TTITLE11=The Metaluna Mutant - Blinky Blue Eyed Sunrise
TTITLE12=Sabres of Paradise - Haunted Dancehall
EXTD=
EXTT0=
EXTT1=
EXTT2=
EXTT3=
EXTT4=
EXTT5=
EXTT6=
EXTT7=
EXTT8=
EXTT9=
EXTT10=
EXTT11=
EXTT12=
PLAYORDER=
